<svg height="200" viewBox="0 0 100 200" width="100" xmlns="http://www.w3.org/2000/svg" xmlns:xlink="http://www.w3.org/1999/xlink"><radialGradient id="a" cx="50%" cy="50%" r="50%"><stop offset=".7" stop-color="#222" stop-opacity="0"/><stop offset=".70202" stop-color="#222" stop-opacity=".0118"/><stop offset=".85" stop-color="#333"/><stop offset="1" stop-color="#333" stop-opacity="0"/></radialGradient><radialGradient id="b" cx="50%" cy="50%" r="50%"><stop offset=".7" stop-color="#bbb" stop-opacity="0"/><stop offset=".70202" stop-color="#bbb" stop-opacity=".0118"/><stop offset=".85" stop-color="#bbb"/><stop offset="1" stop-color="#bbb" stop-opacity="0"/></radialGradient><filter id="c" height="300%" width="300%" x="-100%" y="-100%"><feColorMatrix in="SourceGraphic" result="out" type="matrix" values="0 0 0 0 0  0 0 0 0 0  0 0 0 0 0  0 0 0 0.251 0"/><feMorphology in="out" operator="dilate" radius="3" result="out"/><feGaussianBlur in="out" result="out" stdDeviation="1.5"/><feBlend in="SourceGraphic" in2="out" mode="normal" result="Glow1"/></filter><filter id="d" height="300%" width="300%" x="-100%" y="-100%"><feColorMatrix in="SourceGraphic" result="out" type="matrix" values="0 0 0 0.8667 0  0 0 0 0.8667 0  0 0 0 0.8667 0  0 0 0 0.251 0"/><feMorphology in="out" operator="dilate" radius="3" result="out"/><feGaussianBlur in="out" result="out" stdDeviation="1.5"/><feBlend in="SourceGraphic" in2="out" mode="normal" result="Glow2"/></filter><path d="m22 50c0-15.4642 12.5358-28 28-28s28 12.5358 28 28-12.5358 28-28 28-28-12.5358-28-28zm-17 0c0 24.8531 20.1469 45 45 45s45-20.1469 45-45-20.1469-45-45-45-45 20.1469-45 45z" fill="url(#a)"/><path d="m22 150c0-15.4642 12.5358-28 28-28s28 12.5358 28 28-12.5358 28-28 28-28-12.5358-28-28zm-17 0c0 24.8531 20.1469 45 45 45s45-20.1469 45-45-20.1469-45-45-45-45 20.1469-45 45z" fill="url(#b)"/><path d="m72.5 49.5-33.75 19.4856v-38.9712z" fill="#fff" filter="url(#c)"/><path d="m13 50.5c0-20.7109 16.7891-37.5 37.5-37.5s37.5 16.7891 37.5 37.5-16.7891 37.5-37.5 37.5-37.5-16.7891-37.5-37.5z" fill="none" stroke="#fff" stroke-width="5"/><path d="m72.5 149.5-33.75 19.4856v-38.9712z" fill="#fff" filter="url(#d)"/><path d="m13 150.5c0-20.7109 16.7891-37.5 37.5-37.5s37.5 16.7891 37.5 37.5c0 20.711-16.7891 37.5-37.5 37.5s-37.5-16.789-37.5-37.5z" fill="none" stroke="#fff" stroke-width="5"/></svg>